<?xml version="1.0" encoding="utf-8"?>
<!-- Generator: Adobe Illustrator 18.0.0, SVG Export Plug-In . SVG Version: 6.00 Build 0)  -->
<!DOCTYPE svg PUBLIC "-//W3C//DTD SVG 1.1//EN" "http://www.w3.org/Graphics/SVG/1.1/DTD/svg11.dtd">
<svg version="1.1" id="Layer_1" xmlns="http://www.w3.org/2000/svg" xmlns:xlink="http://www.w3.org/1999/xlink" x="0px" y="0px"
	 viewBox="0 0 28.4 56.7" enable-background="new 0 0 28.4 56.7" xml:space="preserve">
<path fill-rule="evenodd" clip-rule="evenodd" fill="#fff" d="M-1.2,45.3c2.8-0.8,2.1-1.2,7.3-4.5c0,0-10.5-5.2-8.7-12.8
	c-1.2-0.1-3.9-0.7-4-2c0-0.4,1.6-0.6,2.1-0.6c-1-0.3-2.1-0.9-2.1-1.8c0-1,1.5-0.5,2.6-0.5c-0.7-0.1-3.3-1.8-3-2.7
	c0.3-0.9,2,0.3,2.9,0.3c-0.8-0.2-2.2-1.2-2.9-1.9c-0.4-0.5-0.8-1.7-0.1-1.7c0.5,0,1.3,0.2,1.8,0.4c-1-0.3-2.2-1.2-2.1-2.4
	c0.1-1.2,1.7,0.6,2.2,0.8c-0.7-0.7-2.6-2.8-1.7-4.1c0.3-0.4,1.9,1.5,2.3,1.7c-0.3-0.3-2.7-4-1.5-4.1c0.4,0,1.7,2.3,2.1,2.9
	c0.3,0.5,0.8,1.2,1.2,1.6C-3.2,13.2-5.3,9.5-4.4,9c0.4-0.2,3.3,5.4,3.7,6.2c-0.4-1-2-5.6-0.4-5.3c0.3,0.1,0.5,2,0.6,2.4
	c0.6,2.3,1.7,4.7,3.4,6.4c2,2,6.2,4.6,9.9,7.8c1.7,1.4,3.7,4.1,5.4,6.1c0.4-1,0.9-2.1,1.4-3.1c0.6-1.3,1.8-4.5,2.9-4.9
	c0.9-0.3,0.9,0.7,1.2,1c0.1-0.5-1.2-3.8,0.6-5.1c0.5-0.3,1.6,1.2,1.8,1.8c-0.3-1.5-0.9-4.3,0.2-4.8c0.8-0.4,1.4,0.7,2,1.8
	c-0.3-0.8-0.6-1.6-0.7-2.5c-0.1-0.7-0.3-1.9,0.3-2.4c1.4-1.2,1.4,1.1,2.4,2.8c-0.3-1.3-0.5-2-0.5-3.2c0-0.8,0.1-2,0.8-2.4
	c1.7-1.1,1.5,3.1,1.9,4.3c0.4-1.5,0-3.2,0.4-4.5c0.3-0.8,0.6-2.4,1.8-2.4c0.5,0,0.6,0.5,0.6,1c-0.1,1-0.1,1.7-0.1,2.4
	c0,0.6,0.4,2.9,0.3,4c0.2-1.3,0.7-4,0.8-4.6c0.2-0.7,1.4-2.3,1.9-1.5c0.3,0.5,0.3,1.8,0.4,2.3c0,0.6,0.1,1.1,0.2,1.7
	c0.2,2.4-0.2,4.7-1.3,6.8c-1.9,3.5-6.6,7.5-8.8,10.2c-1.7,2.1-2.4,2.5-2.3,4c1.4-0.1,2.6-0.2,3.1-0.6c1.4-1,2.6-1.2,4.4-0.6
	c1.8,0.6,1.8,3.3,1.6,3.8c0.5,1.4,0.2,2.6,0.2,2.6s-0.7-0.7-1.3-1.2c-0.6-0.4-1.4-0.4-1.4-0.4s-1.1,0.6-2.7,1.8
	c-1.6,1.2-2.6,1-4.2,2.4c-1.6,1.4-6.9,3.8-9.7,3.8c-2.8,0-6.9-0.2-10.3,0.6C2.9,48.6-1.7,50-4.9,50c-3.2,0-3.4-0.9-4-2.1
	C-9.8,46.2-4,46.1-1.2,45.3z"/>
</svg>
