<?xml version="1.0" encoding="utf-8"?>
<!-- Generator: Adobe Illustrator 18.0.0, SVG Export Plug-In . SVG Version: 6.00 Build 0)  -->
<!DOCTYPE svg PUBLIC "-//W3C//DTD SVG 1.1//EN" "http://www.w3.org/Graphics/SVG/1.1/DTD/svg11.dtd">
<svg version="1.1" id="Layer_1" xmlns="http://www.w3.org/2000/svg" xmlns:xlink="http://www.w3.org/1999/xlink" x="0px" y="0px"
	 viewBox="0 0 28.4 56.7" enable-background="new 0 0 28.4 56.7" xml:space="preserve">
<path fill-rule="evenodd" clip-rule="evenodd" fill="#fff" d="M25.9,12.6c-0.4-0.7-1.2,0-2.3-1.9c-0.6-1.1-2.7-1-2.7-1.5
	C20.8,8,20.9,5,20.1,5s-1.9,2-2.3,3c-0.4,1-1,1-1.9,1.5c-1.8,1.2-2.9,4.7-2.6,6.5c-0.5,1-2.4,3.8-5.4,4.5c-3,0.7-5.3,5.6-6.6,8.4
	c-1.3,2.9-0.4,10.4-0.1,11.8c0.1,0.7,0,1.6-0.1,2.5c-4.3,8,4.2,13.1,13.7,9.6c4-1.5,1.8-2.1-1.8-1.4C9,52.3,0.8,51.4,2.7,46.2
	c1.9,0.4,4.8,0.3,5.6,0.3c1.7,0.1,7.5,0.4,8.6-0.4c1-2.4-1.7-2.3-2.9-2.4c0.8-0.4,1.5-1.8,1.5-2.6c1.1,2.4,2.1,6.1,5.6,4.7
	c1-0.4,0.4-1.4,0.4-1.4s0.8-0.1,0.8-1.1c0-0.9-2.1-0.4-2.3-1.2c-0.2-0.8-0.1-7.8-0.1-8.8s0.2-2.7,2.2-5.4c2.4-3.2,0.5-9.7,0.7-10.5
	c0.2-0.9,1.8-1.2,2.6-2.4C25.9,14.2,26.2,13.1,25.9,12.6z"/>
</svg>
