<?xml version="1.0" encoding="utf-8"?>
<!-- Generator: Adobe Illustrator 18.0.0, SVG Export Plug-In . SVG Version: 6.00 Build 0)  -->
<!DOCTYPE svg PUBLIC "-//W3C//DTD SVG 1.1//EN" "http://www.w3.org/Graphics/SVG/1.1/DTD/svg11.dtd">
<svg version="1.1" id="Layer_1" xmlns="http://www.w3.org/2000/svg" xmlns:xlink="http://www.w3.org/1999/xlink" x="0px" y="0px"
	 viewBox="0 0 50 50" enable-background="new 0 0 50 50" xml:space="preserve">
<path fill-rule="evenodd" clip-rule="evenodd" fill="none" d="M49.9,16.8c-0.3-1.7-1.9-2.7-2.4-3c-0.4-0.2,1.2-9.1,1.2-9.1
	c0.4,0,0.7-0.4,0.7-0.8c0-0.5-0.4-0.8-0.8-0.8c-0.5,0-0.8,0.4-0.8,0.8c0,0.3,0.2,0.6,0.4,0.7c0,0-1.8,8.8-2,8.9
	c-0.3,0.1-1.5,0.1-1.5,0c-0.1-0.2-0.1-8.9-0.1-8.9c0.4-0.1,0.6-0.4,0.6-0.8c0-0.5-0.4-0.8-0.8-0.8c-0.5,0-0.8,0.4-0.8,0.8
	c0,0.3,0.2,0.6,0.5,0.8c0,0-0.1,8.9-0.5,9c-0.4,0.1-1.4,0.6-2,1c-2.1,1.5-3,6.9-3.5,9.5c-1.3-2.8-2.6-8.8-6.7-12.7
	c-5.8-5.5-19.9-5.8-24,5.3c-3.2,8.5-0.5,13.6,0.4,15.1c-2.8,0-4.7,0.1-4.7,0.1C0.3,32.5-2.5,35.8,4,36c6.6,0.2,31.7,2.6,36.8-0.9
	c4.1-2.7,5.9-7.8,5.5-10.6C46,21.7,50.7,20.7,49.9,16.8z"/>
</svg>
